<?xml version="1.0" encoding="utf-8"?>
<!-- Generator: Adobe Illustrator 19.2.0, SVG Export Plug-In . SVG Version: 6.00 Build 0)  -->
<svg version="1.1" id="Layer_1" xmlns="http://www.w3.org/2000/svg" xmlns:xlink="http://www.w3.org/1999/xlink" x="0px" y="0px"
	 viewBox="0 0 100 20" style="enable-background:new 0 0 100 20;" xml:space="preserve">
<style type="text/css">
	.st0{fill-rule:evenodd;clip-rule:evenodd;fill:#06231F;}
</style>
<g>
	<g>
		<path class="st0" d="M26.9,10c0.5,0.5,0.8,0.9,1.1,1.3c0.1,0.1,0.3,0.2,0.3,0.4c0.1,0.2,0,0.4,0,0.6c-0.2,0-0.5,0-0.7-0.1
			c-0.2-0.1-0.4-0.3-0.5-0.5c-0.3-0.2-0.6-0.5-0.9-0.7c-1.1-0.8-1.4-0.8-2.4,0.1c-0.6,0.5-1.1,1.1-1.6,1.7c-0.7-0.3-1.2-0.6-1.9-0.8
			c-0.5-0.2-1.1-0.2-1.6-0.4c-0.5-0.2-1-0.4-1.5-0.6c-0.1-0.6,0.2-1,0.7-1.2c0.2-0.1,0.4-0.2,0.7-0.3c0.6-0.2,1-0.6,1.2-1.1
			c0.3-0.9,0.6-1,1.6-0.8c0.9,0.2,1.8,0.3,2.5,0.9c0.2,0.2,0.7,0.1,1,0c1.1-0.4,2.1-0.9,3.1-1.3c0.2-0.1,0.3-0.2,0.5-0.3
			c0.4,0.6,0.4,0.8-0.1,1.1c-0.7,0.4-1.4,0.7-2.2,1c1.8,0.4,3.5,0.5,5.1,0.5c2.6,0,5.1-0.1,7.7-0.1c3.3,0,6.5-0.1,9.8-0.1
			c3.8,0,7.5,0.2,11.3,0.2c2.6,0,5.3,0,8,0c0-0.5,0.1-0.9,0.1-1.3c0.4-0.3,0.8-0.1,1,0.1c1,0.8,2.2,0.6,3.3,0.7
			C72.9,9.1,73,9,73.1,9l2.9-1.8c0.7-0.4,0.7-0.4,1.5,0c0.4,0.2,0.9,0.3,1.5,0.6c0.2,0.7,0.9,1,1.7,1.3c0.5,0.2,1,0.5,1.5,0.8
			c0.5,0.3,0.4,0.6-0.1,0.8c-1.2,0.4-2.4,0.8-3.6,1.3c-0.6,0.2-1,0.6-1.6,0.9c-0.8,0.4-0.9,0.4-1.4-0.3c-0.3-0.4-0.7-0.7-1.1-1
			c-0.2-0.2-0.6-0.3-0.8-0.5c-0.2-0.2-0.3-0.4-0.5-0.6c-0.9,0.6-1.7,1.1-2.5,1.6c0,0-0.1-0.1-0.2-0.1c0-0.7,0.9-0.9,1.2-1.6
			c-0.4-0.3-0.9-0.2-1.3-0.1c-2.8,0-5.7,0.1-8.5,0.1c-2.5,0-4.9-0.2-7.4-0.2c-3.7-0.1-7.5-0.1-11.2-0.1c-2.7,0-5.5,0.1-8.2,0.1
			c-1.8,0-3.6,0.1-5.4,0.1C28.7,10.3,27.9,10.1,26.9,10z"/>
	</g>
</g>
</svg>
