<?xml version="1.0" encoding="utf-8"?>
<!-- Generator: Adobe Illustrator 19.2.0, SVG Export Plug-In . SVG Version: 6.00 Build 0)  -->
<svg version="1.1" id="Layer_1" xmlns="http://www.w3.org/2000/svg" xmlns:xlink="http://www.w3.org/1999/xlink" x="0px" y="0px"
	 viewBox="0 0 800 800" style="enable-background:new 0 0 800 800;" xml:space="preserve">
<style type="text/css">
	.st0{fill:#FFFFFF;stroke:#000000;stroke-width:14;stroke-linejoin:round;stroke-miterlimit:10;}
	.st1{fill:#FFFFFF;stroke:#000000;stroke-width:14;stroke-linecap:round;stroke-linejoin:round;stroke-miterlimit:10;}
	.st2{stroke:#000000;stroke-miterlimit:10;}
	.st3{fill:none;stroke:#000000;stroke-width:14;stroke-linecap:round;stroke-linejoin:round;stroke-miterlimit:10;}
	.st4{fill:#FFFFFF;stroke:#000000;stroke-width:11;stroke-linejoin:round;stroke-miterlimit:10;}
	.st5{fill:none;stroke:#000000;stroke-width:11;stroke-linecap:round;stroke-linejoin:round;stroke-miterlimit:10;}
</style>
<g id="Objects">
	<g>
		<g>
			<g>
				<g>
					<path class="st0" d="M690.9527,433.63046l-0.01654,0.00925c43.99768-42.20886,71.39221-101.59445,71.39221-167.38138
						c0-128.09172-103.8371-231.93074-231.93262-231.93074c-128.09079,0-231.92889,103.83902-231.92889,231.93074
						s103.8381,231.93085,231.92889,231.93085c29.31964,0,57.35767-5.45267,83.17859-15.37665l97.62885,50.43942L690.9527,433.63046
						z"/>
					<path class="st1" d="M396.55161,298.20419c20.04163,54.49149,72.40335,93.36255,133.84415,93.36255
						c61.44452,0,113.8089-38.87106,133.84619-93.36255"/>
					<g>
						<circle class="st2" cx="477.50793" cy="208.98666" r="17.75288"/>
						<circle class="st2" cx="583.2865" cy="208.98666" r="17.75288"/>
					</g>
				</g>
				<g>
					<path class="st0" d="M96.30324,621.50842l0.01373,0.00549c-36.1419-34.67126-58.64535-83.45258-58.64535-137.48807
						c0-105.2197,85.29631-190.51715,190.51596-190.51715c105.21806,0,190.5136,85.29745,190.5136,190.51715
						c0,105.21591-85.29556,190.51236-190.51361,190.51236c-24.08345,0-47.11462-4.47845-68.32567-12.62988l-80.19379,41.43109
						L96.30324,621.50842z"/>
					<path class="st3" d="M338.13217,510.26413c-16.46225,44.76065-59.47369,76.6907-109.94458,76.6907
						c-50.47162,0-93.48392-31.93005-109.9453-76.6907"/>
					<g>
						<circle class="st2" cx="271.63223" cy="436.97964" r="14.58322"/>
						<circle class="st2" cx="184.74222" cy="436.97964" r="14.58323"/>
					</g>
				</g>
				<g>
					<path class="st4" d="M584.63177,668.68103c14.62109-20.33868,23.26007-45.26996,23.26007-72.23248
						c0-68.4397-55.48248-123.92029-123.92224-123.92029s-123.92038,55.48059-123.92038,123.92029
						c0,68.43994,55.48053,123.92212,123.92038,123.92212c22.53186,0,43.63922-6.04285,61.84344-16.55133
						c17.34576,7.14044,56.58545,21.41046,56.58545,21.41046L584.63177,668.68103z"/>
					<g>
						<path class="st5" d="M414.44507,611.64343c10.41113,28.30457,37.61102,48.49438,69.52454,48.49438
							c31.91724,0,59.11688-20.18982,69.52618-48.49438"/>
						<g>
							<circle class="st2" cx="456.49719" cy="565.2998" r="9.22119"/>
							<circle class="st2" cx="511.44238" cy="565.2998" r="9.22163"/>
						</g>
					</g>
				</g>
			</g>
		</g>
	</g>
</g>
</svg>
