<?xml version="1.0" encoding="utf-8"?>
<!-- Generator: Adobe Illustrator 19.2.0, SVG Export Plug-In . SVG Version: 6.00 Build 0)  -->
<svg version="1.1" id="Layer_1" xmlns="http://www.w3.org/2000/svg" xmlns:xlink="http://www.w3.org/1999/xlink" x="0px" y="0px"
	 viewBox="0 0 300 100" style="enable-background:new 0 0 300 100;" xml:space="preserve">
<style type="text/css">
	.st0{fill:#FF7260;}
</style>
<g>
	<g>
		<path class="st0" d="M102.9,54c2.4-0.1,5.6-2,5.1-4.9c-0.4-2.3-3-3.1-4.9-2.1c-0.7,0.4,0.3,1.3,0.8,1.2c1.3-0.2,2.6,0.9,1.9,2.3
			c-0.4,0.8-1.3,1.3-2.1,1.6c-2.3,0.8-4.9,0-5.4-2.7c-0.4-2.7,2.3-5.4,4.1-7c3.9-3.4,8.8-5.2,13.8-6c4.9-0.8,9.9-0.6,14.8,0.2
			c5.9,0.9,14.3,2.7,15.3,9.6c-4.2-2.9-10.5-3.2-15.4-2.7c-4.6,0.5-11,2.3-11.5,7.8c-0.1,0.6,0.9,1.3,1.4,1
			c5.2-2.8,11.4-4.4,17.5-4.8c-0.3,0.1-0.6,0.1-0.9,0.2c-2.3,0.5-4.6,1.2-6.6,2.4c-2.5,1.6-5.1,5-1.9,7.4c0.3,0.2,0.9,0.5,1.1,0.1
			c1.6-2.3,3.6-4.1,5.7-5.5c-0.5,0.5-0.9,1-1.2,1.5c-0.8,1.4-1.2,2.6-0.3,4.1c0.4,0.7,1.4,2,2.4,2c0.3,0,0.6-0.2,0.6-0.5
			c0.1-5.1,5.8-8.8,9.8-10.9c0.1,0,0.1,0,0.2-0.1c0.3-0.1,0.2-0.3,0.1-0.5c0.8-7.1-7-10.3-12.7-11.7c-6.5-1.5-13.3-2.1-19.8-1
			c-6.1,1.1-13.3,3.9-16.9,9.4C95.2,48.6,97.1,54.3,102.9,54z M133,44.8c3.3-0.2,6.3,0.3,9.2,1.2c-6.9-0.8-14.4,0.9-20.6,3.8
			C123.4,45.9,129.3,45,133,44.8z M129.3,55.3c-0.1-0.8,0.2-1.9,0.6-2.4c0.5-0.6,1.4-1.2,2.1-1.6c1.2-0.7,2.5-1.3,3.8-1.7
			c0.3-0.1,0.6-0.2,0.8-0.2C133.8,50.8,131.3,52.9,129.3,55.3z M135.8,57.3c-0.1-0.4-0.2-1-0.2-1.1c-0.1-1,0.5-1.9,1.1-2.7
			c0.9-1.1,2.2-2,3.4-2.7c0,0,0,0,0,0C138.1,52.6,136.3,54.8,135.8,57.3z"/>
		<path class="st0" d="M200.2,44.2c-3.6-5.4-10.7-8.3-16.9-9.4c-6.6-1.1-13.4-0.5-19.8,1c-5.6,1.3-13.5,4.6-12.7,11.7
			c-0.1,0.2-0.1,0.4,0.1,0.5c0.1,0,0.1,0,0.2,0.1c4.1,2.1,9.7,5.8,9.8,10.9c0,0.4,0.3,0.5,0.6,0.5c1,0,1.9-1.2,2.4-2
			c0.9-1.5,0.5-2.7-0.3-4.1c-0.3-0.5-0.7-1-1.2-1.5c2.2,1.4,4.1,3.2,5.7,5.5c0.3,0.4,0.8,0.1,1.1-0.1c3.2-2.4,0.7-5.8-1.9-7.4
			c-2-1.3-4.3-1.9-6.6-2.4c-0.3-0.1-0.6-0.1-0.9-0.2c6.1,0.4,12.3,2,17.5,4.8c0.6,0.3,1.5-0.3,1.4-1c-0.5-5.5-6.8-7.3-11.5-7.8
			c-4.9-0.5-11.1-0.2-15.4,2.7c1-6.9,9.4-8.6,15.3-9.6c4.9-0.8,9.9-1,14.8-0.2c5,0.8,9.9,2.7,13.8,6c1.8,1.6,4.5,4.3,4.1,7
			c-0.4,2.7-3,3.5-5.4,2.7c-0.8-0.3-1.7-0.8-2.1-1.6c-0.7-1.3,0.5-2.5,1.9-2.3c0.5,0.1,1.5-0.9,0.8-1.2c-1.9-1-4.5-0.2-4.9,2.1
			c-0.6,2.9,2.6,4.8,5.1,4.9C201.2,54.3,203.1,48.6,200.2,44.2z M176.6,49.7c-6.2-2.9-13.8-4.5-20.6-3.8c2.9-0.9,5.9-1.3,9.2-1.2
			C168.9,45,174.8,45.9,176.6,49.7z M161.6,49.4c0.3,0.1,0.6,0.1,0.8,0.2c1.3,0.4,2.6,1,3.8,1.7c0.7,0.4,1.6,1,2.1,1.6
			c0.4,0.5,0.7,1.6,0.6,2.4C167,52.9,164.4,50.8,161.6,49.4z M158,50.8C158.1,50.8,158.1,50.9,158,50.8c1.3,0.8,2.6,1.6,3.5,2.7
			c0.6,0.8,1.2,1.6,1.1,2.7c0,0.1-0.1,0.6-0.2,1.1C162,54.8,160.2,52.6,158,50.8z"/>
	</g>
	<g>
		<g>
			<path class="st0" d="M91.5,46.2C82.9,45.7,74.2,46,65.6,46c-4.3,0-8.6,0-12.9,0c-3.9,0-8.1-0.4-12,0.1c-0.8,0.1,0,1.1,0.5,1.1
				c4.2,0.5,8.7,0.1,12.9,0.1c4.3,0,8.6,0,12.9,0c8.2,0,16.6,0.3,24.8-0.3C92.4,47.1,91.8,46.3,91.5,46.2L91.5,46.2z"/>
		</g>
	</g>
	<g>
		<g>
			<path class="st0" d="M258.2,46.2c-8.6-0.5-17.2-0.2-25.8-0.3c-4.3,0-8.6,0-12.9,0c-3.9,0-8.1-0.4-12,0.1c-0.8,0.1,0,1.1,0.5,1.1
				c4.2,0.5,8.7,0.1,12.9,0.1c4.3,0,8.6,0,12.9,0c8.2,0,16.6,0.3,24.8-0.3C259.1,47.1,258.6,46.3,258.2,46.2L258.2,46.2z"/>
		</g>
	</g>
	<g>
		<g>
			<path class="st0" d="M257.7,47c1.4,1.4,3.3,2.3,5.3,2.4c1.6,0.1,4.1-0.3,4.7-2.1c1.4-4.5-8.4-2-9.9-1.2c-0.8,0.4,0.4,1.5,1,1.3
				c1.3-0.5,2.6-0.9,4-1.1c0.8-0.1,4.2-0.6,3.1,0.9c-0.7,1-2.6,1.1-3.7,1c-1.4-0.1-2.7-0.7-3.8-1.5C257.9,46.2,257.3,46.5,257.7,47
				L257.7,47z"/>
		</g>
	</g>
	<g>
		<g>
			<path class="st0" d="M41.5,46.3c-1.7,0.5-3.3,0.9-5,1c-0.7,0.1-2.5,0.4-2.8-0.7c-0.2-0.7,0.6-1.4,1.1-1.6c2.6-1.1,5.2,2.4,8,2.1
				c0.7-0.1,0.1-1-0.3-1.1c-2.3-0.5-9.8-5.6-10.3-0.1c-0.4,4.7,7.8,2.1,9.8,1.1C42.5,46.9,41.9,46.2,41.5,46.3L41.5,46.3z"/>
		</g>
	</g>
	<g>
		<g>
			<path class="st0" d="M148.9,49.5c1.1,2.4,1.7,4.9,1.9,7.6c0.1,1.1,0.2,2.2,0.1,3.2c0,0.7-0.1,1.5-0.3,2.1
				c-0.4,1.3-0.5,1.9-2.1,1.9c-1.5,0-1.9-0.8-2.2-2.3c-0.1-0.5-0.1-1.1,0-1.6c0.1-1.4,0.4-2.7,0.7-4.1c0.6-2.5,1.5-4.4,2.9-6.5
				c0.3-0.5-0.3-1.1-0.8-1c-1.4,0.3-1.8,1.4-2.4,2.6c-0.9,2.2-1.5,4.6-1.9,6.9c-0.5,3.1,0,6.3,3.1,7.7c3,1.4,4.2-2.2,4.4-4.6
				c0.4-4.1-0.5-8.7-2.6-12.2C149.5,48.8,148.5,48.8,148.9,49.5L148.9,49.5z"/>
		</g>
	</g>
</g>
</svg>
