<svg xmlns="http://www.w3.org/2000/svg" xmlns:xlink="http://www.w3.org/1999/xlink" version="1.1" x="0px" y="0px" viewBox="0 0 48 60" enable-background="new 0 0 48 48" xml:space="preserve"><g><g><path fill="none" stroke="#000000" stroke-width="2" stroke-linecap="round" stroke-linejoin="round" stroke-miterlimit="10" d="    M35.518,27.146c0,0,3.629-6.78,4.801-9.22l-1.237-1.117l-1.248-1.127l-0.485-0.438l-1.596-1.44l-0.891-0.804    c-2.457,1.278-9.265,5.191-9.265,5.191c0.922,4.607-0.294,8.106-1.06,9.729c-0.712-0.446-1.672-0.357-2.274,0.26    c-0.673,0.691-0.639,1.777,0.08,2.426l0.498,0.449c0.718,0.648,1.847,0.614,2.522-0.076c0.6-0.616,0.634-1.545,0.124-2.2    C27.124,27.939,30.679,26.553,35.518,27.146z"/><polygon fill="none" stroke="#000000" stroke-width="2" stroke-linecap="round" stroke-linejoin="round" stroke-miterlimit="10" points="    47,12.708 39.9,6.298 34.147,12.192 41.247,18.602   "/><ellipse fill="none" stroke="#000000" stroke-width="2" stroke-linecap="round" stroke-linejoin="round" stroke-miterlimit="10" cx="31.744" cy="21.168" rx="2.111" ry="2.031"/></g><path fill="none" stroke="#000000" stroke-width="2" stroke-linecap="round" stroke-linejoin="round" stroke-miterlimit="10" d="   M41.541,18.302v19.604c0,2.087-1.709,3.797-3.797,3.797H4.796C2.708,41.702,1,39.992,1,37.905V12.027   C1,9.938,2.708,8.23,4.796,8.23h32.948"/><line fill="none" stroke="#000000" stroke-width="2" stroke-linecap="round" stroke-linejoin="round" stroke-miterlimit="10" x1="7.007" y1="14.167" x2="25.247" y2="14.167"/><line fill="none" stroke="#000000" stroke-width="2" stroke-linecap="round" stroke-linejoin="round" stroke-miterlimit="10" x1="7.007" y1="19.759" x2="22.118" y2="19.759"/><line fill="none" stroke="#000000" stroke-width="2" stroke-linecap="round" stroke-linejoin="round" stroke-miterlimit="10" x1="7.007" y1="25.351" x2="22.118" y2="25.351"/><line fill="none" stroke="#000000" stroke-width="2" stroke-linecap="round" stroke-linejoin="round" stroke-miterlimit="10" x1="7.007" y1="30.942" x2="18.723" y2="30.942"/><line fill="none" stroke="#000000" stroke-width="2" stroke-linecap="round" stroke-linejoin="round" stroke-miterlimit="10" x1="7.007" y1="36.533" x2="35.298" y2="36.533"/></g><text x="0" y="63" fill="#000000" font-size="5px" font-weight="bold" font-family="'Helvetica Neue', Helvetica, Arial-Unicode, Arial, Sans-serif">Created by Creative Stall</text><text x="0" y="68" fill="#000000" font-size="5px" font-weight="bold" font-family="'Helvetica Neue', Helvetica, Arial-Unicode, Arial, Sans-serif">from the Noun Project</text></svg>