<svg xmlns="http://www.w3.org/2000/svg" xmlns:xlink="http://www.w3.org/1999/xlink" version="1.1" x="0px" y="0px" viewBox="0 0 50 62.5" enable-background="new 0 0 50 50" xml:space="preserve"><path d="M44.446,18.667c0.112-0.083,0.179-0.216,0.179-0.357v-8.028c0-0.14-0.066-0.273-0.179-0.356l-2.497-1.874v-4.46H8.051v2.676  v0.892H6.713c-0.738,0-1.338,0.6-1.338,1.338v0.892c0,0.738,0.6,1.338,1.338,1.338h1.338v1.784H6.713  c-0.738,0-1.338,0.601-1.338,1.338v0.892c0,0.738,0.6,1.338,1.338,1.338h1.338v1.784H6.713c-0.738,0-1.338,0.6-1.338,1.338v0.892  c0,0.738,0.6,1.338,1.338,1.338h1.338v1.784H6.713c-0.738,0-1.338,0.601-1.338,1.338v0.893c0,0.737,0.6,1.338,1.338,1.338h1.338  v1.784H6.713c-0.738,0-1.338,0.601-1.338,1.338v0.893c0,0.737,0.6,1.338,1.338,1.338h1.338v1.784H6.713  c-0.738,0-1.338,0.6-1.338,1.338v0.892c0,0.738,0.6,1.338,1.338,1.338h1.338v1.784H6.713c-0.738,0-1.338,0.601-1.338,1.339v0.892  c0,0.738,0.6,1.338,1.338,1.338h1.338v0.893v2.676h33.898v-4.46h2.229c0.246,0,0.446-0.2,0.446-0.446V29.015v-7.583  c0-0.246-0.2-0.445-0.446-0.445s-0.445,0.199-0.445,0.445v7.137h-1.784V20.54L44.446,18.667z M43.733,10.504v7.583l-1.784,1.338  V9.167L43.733,10.504z M6.713,9.835c-0.246,0-0.446-0.2-0.446-0.446V8.497c0-0.246,0.2-0.446,0.446-0.446h1.338h1.784h1.338  c0.245,0,0.446,0.2,0.446,0.446v0.892c0,0.246-0.201,0.446-0.446,0.446H6.713z M6.713,15.188c-0.246,0-0.446-0.2-0.446-0.446V13.85  c0-0.246,0.2-0.446,0.446-0.446h1.338h1.784h1.338c0.245,0,0.446,0.2,0.446,0.446v0.892c0,0.246-0.201,0.446-0.446,0.446H6.713z   M6.713,20.54c-0.246,0-0.446-0.2-0.446-0.446v-0.892c0-0.246,0.2-0.446,0.446-0.446h1.338h1.784h1.338  c0.245,0,0.446,0.2,0.446,0.446v0.892c0,0.246-0.201,0.446-0.446,0.446H6.713z M6.713,25.893c-0.246,0-0.446-0.201-0.446-0.446  v-0.893c0-0.245,0.2-0.445,0.446-0.445h1.338h1.784h1.338c0.245,0,0.446,0.2,0.446,0.445v0.893c0,0.245-0.201,0.446-0.446,0.446  H6.713z M6.713,31.244c-0.246,0-0.446-0.2-0.446-0.445v-0.893c0-0.245,0.2-0.446,0.446-0.446h1.338h1.784h1.338  c0.245,0,0.446,0.201,0.446,0.446v0.893c0,0.245-0.201,0.445-0.446,0.445H6.713z M6.713,36.597c-0.246,0-0.446-0.2-0.446-0.446  v-0.892c0-0.246,0.2-0.446,0.446-0.446h1.338h1.784h1.338c0.245,0,0.446,0.2,0.446,0.446v0.892c0,0.246-0.201,0.446-0.446,0.446  H6.713z M6.713,41.949c-0.246,0-0.446-0.2-0.446-0.446v-0.892c0-0.246,0.2-0.446,0.446-0.446h1.338h1.784h1.338  c0.245,0,0.446,0.2,0.446,0.446v0.892c0,0.246-0.201,0.446-0.446,0.446H6.713z M40.165,44.625H9.835v-0.892v-0.893h1.338  c0.737,0,1.338-0.6,1.338-1.338v-0.892c0-0.738-0.601-1.339-1.338-1.339H9.835v-1.784h1.338c0.737,0,1.338-0.6,1.338-1.338v-0.892  c0-0.738-0.601-1.338-1.338-1.338H9.835v-1.784h1.338c0.737,0,1.338-0.601,1.338-1.338v-0.893c0-0.737-0.601-1.338-1.338-1.338  H9.835v-1.784h1.338c0.737,0,1.338-0.601,1.338-1.338v-0.893c0-0.737-0.601-1.338-1.338-1.338H9.835v-1.784h1.338  c0.737,0,1.338-0.6,1.338-1.338v-0.892c0-0.738-0.601-1.338-1.338-1.338H9.835V16.08h1.338c0.737,0,1.338-0.6,1.338-1.338V13.85  c0-0.738-0.601-1.338-1.338-1.338H9.835v-1.784h1.338c0.737,0,1.338-0.601,1.338-1.338V8.497c0-0.738-0.601-1.338-1.338-1.338H9.835  V6.267V5.375h30.33v2.23v8.921v4.46v8.028v12.488V44.625z M43.733,29.46v11.597h-1.784V29.46H43.733z"/><text x="0" y="65" fill="#000000" font-size="5px" font-weight="bold" font-family="'Helvetica Neue', Helvetica, Arial-Unicode, Arial, Sans-serif">Created by Luboš Volkov</text><text x="0" y="70" fill="#000000" font-size="5px" font-weight="bold" font-family="'Helvetica Neue', Helvetica, Arial-Unicode, Arial, Sans-serif">from the Noun Project</text></svg>