<?xml version="1.0" encoding="utf-8"?>
<!-- Generator: Adobe Illustrator 19.2.0, SVG Export Plug-In . SVG Version: 6.00 Build 0)  -->
<svg version="1.1" id="Layer_1" xmlns="http://www.w3.org/2000/svg" xmlns:xlink="http://www.w3.org/1999/xlink" x="0px" y="0px"
	 viewBox="0 0 100 125" style="enable-background:new 0 0 100 125;" xml:space="preserve">
<path d="M66.3,59.1c-1.8-1.4-3.1-3.2-4.5-4.9c-0.7-0.8-1.4-1.8-1.9-2.8c-1.2-2.1-2.4-4.9-0.3-7c1.3-1.3,2.7-1.3,4.2,0
	c1.1,0.9,1.9,2.1,2.8,3.1c0.4,0.4,1.7,1.7,1.5,0.5c-0.1-0.7-0.6-2.3-0.6-3.4c0.1-1.4,0-1.8,0.5-3.1c0.5-1.2,1.4-2.2,2.4-3.1
	c1.2-1.1,2.4-2.1,3.6-3.2c2.2-1.9,4-4.1,5.7-6.5c0.7-1.1,1.6-2.3,1.7-3.7c0.1-0.9-0.4-2.5-1.3-3.1c-1.3-0.8-2.7-0.1-3.8,0.7
	c-0.4,0.3-0.8,0.8-1.2,1.2c-1,1-2,2.2-3.1,3.1c-2.6,2.4-5.5,4.3-8.8,5.6c-6.2,2.4-13,3-19.5,4.3c-2.6,0.5-5.2,1.2-7.6,2.5
	c-0.5,0.2-0.7,0.4-0.1,0.8c3.9,0.9,7.9,1.7,12,1.8c0.9,0,1.6,0.4,1.8,1.4c0.5,2.4,0.7,5,0.7,7.4c0,1.6-0.3,3.3-0.2,4.9
	c0.1,0.7,0.5,0.5,0.9,0.4c2.1-0.5,5.3,0.7,6.6,2.3c1.4,1.7,1.8,4.3,0.9,6.4c-0.1,0.2-0.6,0.8-0.4,1c0.4,0.3,1.5-0.7,1.9-0.9
	c1-0.6,2-1.2,2.9-2c1.5-1.2,3-2.1,4.9-0.1c-0.2-1.1,0.1-1.9-0.2-2.7C67.2,59.9,66.7,59.5,66.3,59.1z M60.7,65.9
	c-1.1,0.8-2.5,1.6-3.8,2c-5.1,1.6-10.4-0.3-15-2.4c-0.6-0.3-1.1-0.4-1.6-0.1c-0.5,0.3-0.4,0.9-0.3,1.5c0.1,0.8,0.4,1.4,1,2
	c1.9,1.9,4.1,3.4,6.6,4.5c1.2,0.5,0.8,2.6,0.8,3.5c0,2.2,0.1,4.4,0.1,6.6c1.2,0.1,2.4,0.2,3.6,0.2c2.6,0,5.2-0.3,7.7-0.7
	c0-2.9,0.1-5.7,0-8.6c0-1.4,0.5-2.5,1.6-2.9c1.2-0.5,1.8-1.5,2.6-2.3c1.4-1.3,2.7-3,2.6-5C66.4,60.9,61.6,65.2,60.7,65.9z
	 M91.4,42.1c-1.5-0.8-1.9-0.7-2.7,0.7c-0.9,1.5-1.6,3.1-2.5,4.6c-2,3.5-4.6,6.4-8.9,7.1c-0.7,0.1-1.5,0.1-2.3,0.1
	c-1,0-2-0.3-2.9-0.7c-3.4-1.4-5.5-4.6-7.9-7.3c-0.4-0.4-0.7-0.9-1.1-1.3c-0.7-0.7-1.4-1.1-2.3-0.7c-0.9,0.4-1.4,1.1-1.5,2.1
	c-0.1,0.8,0.2,1.6,0.5,2.4c0.6,1.6,1.6,3,2.6,4.3c0.4,0.5,0.8,1,1.3,1.5c0.8,0.9,1.6,1.8,2.5,2.6c0.8,0.8,1.6,1.7,2.5,2.3
	c0.5,0.3,1,0.5,1.1,1.1c0.1,2.7,0.3,5.3,0.4,8c0.1,3.3,0.3,6.7,0.6,10c2.4-1.2,4.6-2.6,6.7-4.2c0-0.1,0-0.2,0-0.2c0,0.1,0,0.1,0,0.2
	c2.3-1.8,4.5-3.8,6.5-6c0-2.5-0.1-5-0.2-7.4c0-1,0.2-1.8,0.9-2.5c2.6-2.5,4.8-5.4,6-8.9c0.6-1.9,1-3.9,1.1-5.9
	C92.1,43.4,91.8,42.8,91.4,42.1z M34.1,36.8c3.4,0,6.2-2.8,6.2-6.2c0-3.4-2.8-6.2-6.2-6.2c-3.4,0-6.2,2.8-6.2,6.2
	C27.9,34.1,30.7,36.8,34.1,36.8z M75.5,42.6c-2.5,0-5.5,2.4-5,5.2c0.4,2.9,2.3,5.2,5,5.2s5-2.3,5-5.2S78.7,42.6,75.5,42.6z
	 M40.1,22.7c1.5,0,2.7-1.3,2.7-2.9s-1-2.8-2.7-2.9c-1.3,0-3,1.3-2.7,2.9C37.6,21.4,38.6,22.7,40.1,22.7z M48,26
	c0.4,3.6,3,6.6,6.6,6.6c3.7,0,6.6-3,6.6-6.6c0-3.7-3.5-7-7.2-7C50.5,19,47.6,22.3,48,26z M52.8,66.9c2.5-0.2,4.6-2.1,4.6-4.7
	c0-2.6-2-4.7-4.6-4.7c-2.5,0-4.7,1.1-4.9,4.2C47.8,64.3,49.6,67.1,52.8,66.9z M23.1,54.7c0-2.2-1.8-4-4-4c-2.2,0-4,1.8-4,4
	c0,2.2,1.8,4,4,4C21.3,58.7,23.1,56.9,23.1,54.7z M24.8,66.7c0-0.7,0.1-1.2,0.6-1.7c1.8-1.8,3.3-3.7,4.1-6.1c0.4-1.3,0.7-2.7,0.8-4
	c0-0.5-0.2-1-0.4-1.4c-1-0.6-1.3-0.5-1.9,0.5c-0.6,1-1.1,2.1-1.7,3.1c-1.4,2.4-3.2,4.4-6.1,4.9C19.8,62,19.2,62,18.7,62
	c-0.7,0-1.4-0.2-2-0.4c-2.3-0.9-3.8-3.2-5.4-5c-0.3-0.3-0.5-0.6-0.8-0.9c-0.5-0.5-1-0.7-1.6-0.5c-0.6,0.2-1,0.8-1,1.4
	c-0.1,0.6,0.2,1.1,0.4,1.6c0.4,1.1,1.1,2.1,1.8,3c0.3,0.4,0.6,0.7,0.9,1.1c0.5,0.6,1.1,1.2,1.7,1.8c0.5,0.5,1.1,1.2,1.7,1.6
	c0.3,0.2,0.7,0.3,0.7,0.8c0.1,1.8,0.2,3.7,0.3,5.5c0.1,2.3,0.2,4.6,0.4,6.9C17.5,78,19,77,20.5,76c0-0.1,0-0.1,0-0.2
	c0,0,0,0.1,0,0.1c1.6-1.2,3.1-2.6,4.5-4.1C24.9,70.1,24.9,68.4,24.8,66.7z M39.1,67.5c-0.8-0.8-0.4-1.8,0-2.5c0.4-0.7,0.6-1.3,0.4-2
	c-0.1-0.6-0.7-1.3-0.9-1.9c-1-2.5-1.4-5.1-1.5-7.7c0-1-0.5-3.3,0.6-4c1.1-0.7,2.9-0.3,4.2-0.3c1.4-0.1,2.7-0.2,4-0.6
	c0.8-0.2,2-0.3,2.6-0.9c0.9-0.8,0.6-2.5,0-3.5c-0.6-1-1.7-1-2.7-1.1c-1.6-0.1-3.2-0.4-4.8-0.7c-4.9-0.9-9.6-2.2-13.7-5.2
	c-3.3-2.4-5-5.8-6.6-9.4c-0.9-2.1-1.7-4.2-2.8-6.2c-0.4-0.7-1.1-1-1.9-0.9c-0.8,0.1-1.2,0.6-1.5,1.3c-0.3,0.8-0.3,1.6-0.2,2.3
	c0.1,1.7,0.3,3.4,0.7,5.1c0.6,2.9,1.6,5.7,3,8.3c1,2.1,2.7,3.8,3.3,6.1c0.4,1.5,0.5,3.2,0.5,4.9c2.3,1.1,3.8,3.4,3.8,6.1
	c0,0.4,0,0.8-0.1,1.2c0.2-0.3,0.4-0.6,0.5-1c0.3-0.5,0.6-1.1,0.9-1.6c0.3-0.5,0.8-1.3,1.7-1.3c0.5,0,0.9,0.2,1.4,0.5l0.2,0.1
	l0.1,0.2c0.4,0.7,0.6,1.3,0.6,2c-0.1,1.6-0.4,3-0.8,4.3c-0.8,2.3-2.1,4.3-4.4,6.5c-0.3,0.3-0.4,0.5-0.4,1c0.1,1.7,0.1,3.4,0.1,5.1
	l0,0.4l-0.2,0.3c-0.3,0.3-0.6,0.7-0.9,1c4.6,3.9,9.9,6.8,15.8,8.5c2.9-1.7,4.5-5.6,5.7-7.8c-1.6-1.2-3.5-2.1-5-3.5
	C40.4,69.7,39.4,68.8,39.1,67.5z M63.8,23.4c1.6-0.1,2.9-1.3,2.9-3c0-1.6-1.3-3-2.9-3s-3,0.7-3.1,2.7C60.6,21.8,61.8,23.6,63.8,23.4
	z M62,24.2c0.2,0.6,0.2,1.2,0.2,1.8c0,1.5-0.5,2.9-1.2,4.1c0,0.5,0,1.3,0,2.2c0.6-0.2,1.1-0.4,1.7-0.6c2-0.8,3.9-1.8,5.6-3
	c0-0.2,0-0.5,0-0.6c0-0.9,0.3-1.6,1-1.8c0.8-0.3,1.1-0.9,1.7-1.4c0.9-0.8,1.7-1.9,1.6-3.2c-0.2-2-3.2,0.7-3.8,1.1
	c-0.7,0.5-1.6,1-2.4,1.3C65,24.5,63.5,24.5,62,24.2z M33.1,22.9c0.2,0.3,0.5,0.6,0.7,0.8c0,0,0,0,0.1,0.1c0.1,0,0.1,0,0.2,0
	c3.8,0,6.9,3.1,6.9,6.9c0,2.5-1.3,4.7-3.3,5.9c0,0.1-0.3,1.1-0.3,1.2c1.3-0.6,5.4-1.7,7.5-2.2c0-1.3-0.1-6.9-0.1-8.3
	c0-0.6,0.1-1,0.5-1.4c1.4-1.4,2.6-2.9,3.3-4.8c0.3-1,0.5-2.1,0.6-3.2c0-0.4-0.1-0.8-0.3-1.1c-0.8-0.4-1-0.4-1.5,0.4
	c-0.5,0.8-0.9,1.7-1.3,2.5c-1.1,1.9-2.5,3.5-4.8,3.9c-0.4,0.1-0.8,0.1-1.2,0c-0.5,0-1.1-0.2-1.6-0.4c-1.9-0.7-3-2.5-4.3-3.9
	c-0.2-0.2-0.4-0.5-0.6-0.7c-0.4-0.4-0.8-0.6-1.3-0.4c-0.5,0.2-0.8,0.6-0.8,1.1c0,0.4,0.1,0.9,0.3,1.3C32,21.4,32.6,22.2,33.1,22.9z"
	/>
</svg>
