<?xml version="1.0" encoding="utf-8"?>
<!-- Generator: Adobe Illustrator 19.2.0, SVG Export Plug-In . SVG Version: 6.00 Build 0)  -->
<svg version="1.1" id="Capa_1" xmlns="http://www.w3.org/2000/svg" xmlns:xlink="http://www.w3.org/1999/xlink" x="0px" y="0px"
	 viewBox="0 0 1000 1000" style="enable-background:new 0 0 1000 1000;" xml:space="preserve">
<style type="text/css">
	.st0{fill:#CB465F;}
	.st1{fill:#EF4D4D;}
	.st2{fill:#EBBA16;}
</style>
<rect x="54.5" y="248.9" class="st0" width="890.9" height="194.4"/>
<rect x="135.5" y="443.3" class="st1" width="745.2" height="486"/>
<path class="st2" d="M945.5,232.7h-231c13.2-18.9,20.4-41.3,20.4-64.9c0-30.4-11.8-58.9-33.1-80.2c-44.2-44.2-116.1-44.2-160.4,0
	l-45.8,45.8l-45.8-45.8c-44.2-44.2-116.1-44.2-160.4,0c-21.3,21.3-33.1,49.8-33.1,80.2c0,23.6,7.2,46,20.4,64.9H54.5
	c-8.9,0-16.2,7.2-16.2,16.2c0,9,7.3,16.2,16.2,16.2h437.4v388.8H135.5c-8.9,0-16.2,7.2-16.2,16.2c0,9,7.3,16.2,16.2,16.2h356.4v243
	c0,9,7.3,16.2,16.2,16.2s16.2-7.2,16.2-16.2v-243h356.4c8.9,0,16.2-7.2,16.2-16.2c0-9-7.3-16.2-16.2-16.2H524.3V265.1h421.2
	c8.9,0,16.2-7.2,16.2-16.2S954.4,232.7,945.5,232.7z M564.3,110.6c31.6-31.6,83-31.6,114.5,0c15.2,15.2,23.6,35.6,23.6,57.3
	c0,21.7-8.4,42.1-23.6,57.3l-7.6,7.6H442.2l64.9-64.9l0,0l0,0L564.3,110.6z M312.4,225.1c-15.2-15.2-23.6-35.6-23.6-57.3
	c0-21.7,8.4-42.1,23.6-57.3c31.6-31.6,83-31.6,114.5,0l45.8,45.8l-57.3,57.3c-5.4,5.4-10.1,11.9-14.5,19.1H320L312.4,225.1z"/>
</svg>
